<svg width="39" height="33" viewBox="0 0 39 33" fill="none" xmlns="http://www.w3.org/2000/svg">
<path d="M1.25 10.75H5.25L7.93 24.14C8.02144 24.6004 8.27191 25.014 8.63755 25.3083C9.00318 25.6026 9.4607 25.759 9.93 25.75H19.65C20.1193 25.759 20.5768 25.6026 20.9425 25.3083C21.3081 25.014 21.5586 24.6004 21.65 24.14L23.25 15.75H6.25M10.25 30.75C10.25 31.3023 9.80228 31.75 9.25 31.75C8.69772 31.75 8.25 31.3023 8.25 30.75C8.25 30.1977 8.69772 29.75 9.25 29.75C9.80228 29.75 10.25 30.1977 10.25 30.75ZM21.25 30.75C21.25 31.3023 20.8023 31.75 20.25 31.75C19.6977 31.75 19.25 31.3023 19.25 30.75C19.25 30.1977 19.6977 29.75 20.25 29.75C20.8023 29.75 21.25 30.1977 21.25 30.75Z" stroke="white" stroke-width="2" stroke-linecap="round" stroke-linejoin="round"/>
<circle cx="27.75" cy="10.75" r="10.5" fill="#FFCA42"/>
<path d="M25.794 14.4276C27.6974 14.4311 28.8658 13.0249 28.8693 10.6243C28.8729 8.23793 27.6974 6.87784 25.794 6.87784C23.8906 6.87784 22.7259 8.23438 22.7223 10.6243C22.7152 13.0178 23.8906 14.4276 25.794 14.4276ZM25.794 12.9893C25.0376 12.9893 24.5227 12.2294 24.5298 10.6243C24.5334 9.05114 25.0412 8.3054 25.794 8.3054C26.5504 8.3054 27.0582 9.05114 27.0618 10.6243C27.0653 12.2294 26.554 12.9893 25.794 12.9893ZM33.139 6.97727H31.509L29.7157 8.09233V9.61222L31.3421 8.6179H31.3847V14.25H33.139V6.97727Z" fill="#1B3764"/>
</svg>
