<svg width="22" height="23" viewBox="0 0 22 23" fill="none" xmlns="http://www.w3.org/2000/svg">
<path d="M1 1.14453H4.63636L7.07273 13.6416C7.15586 14.0713 7.38355 14.4572 7.71595 14.7319C8.04835 15.0067 8.46427 15.1526 8.89091 15.1442H17.7273C18.1539 15.1526 18.5698 15.0067 18.9022 14.7319C19.2346 14.4572 19.4623 14.0713 19.5455 13.6416L21 5.81108H5.54545M9 20.1445C9 20.6968 8.55228 21.1445 8 21.1445C7.44772 21.1445 7 20.6968 7 20.1445C7 19.5922 7.44772 19.1445 8 19.1445C8.55228 19.1445 9 19.5922 9 20.1445ZM20 20.1445C20 20.6968 19.5523 21.1445 19 21.1445C18.4477 21.1445 18 20.6968 18 20.1445C18 19.5922 18.4477 19.1445 19 19.1445C19.5523 19.1445 20 19.5922 20 20.1445Z" stroke="#1B3764" stroke-width="2" stroke-linecap="round" stroke-linejoin="round"/>
</svg>
