<svg width="24" height="7" viewBox="0 0 24 7" fill="none" xmlns="http://www.w3.org/2000/svg">
<path d="M11.9998 1.66732C13.0124 1.66732 13.8332 2.48813 13.8332 3.50065C13.8332 4.51317 13.0124 5.33398 11.9998 5.33398C10.9873 5.33398 10.1665 4.51317 10.1665 3.50065C10.1665 2.48813 10.9873 1.66732 11.9998 1.66732Z" stroke="#FFCA42" stroke-width="1.5"/>
<path d="M21.1668 1.66732C22.1794 1.66732 23.0002 2.48813 23.0002 3.50065C23.0002 4.51317 22.1794 5.33398 21.1668 5.33398C20.1543 5.33398 19.3335 4.51317 19.3335 3.50065C19.3335 2.48813 20.1543 1.66732 21.1668 1.66732Z" stroke="#FFCA42" stroke-width="1.5"/>
<path d="M2.83333 1.66732C3.84586 1.66732 4.66667 2.48813 4.66667 3.50065C4.66667 4.51317 3.84586 5.33398 2.83333 5.33398C1.82081 5.33398 1 4.51317 1 3.50065C1 2.48813 1.82081 1.66732 2.83333 1.66732Z" stroke="#FFCA42" stroke-width="1.5"/>
</svg>
