<svg width="119" height="36" viewBox="0 0 119 36" fill="none" xmlns="http://www.w3.org/2000/svg">
<path d="M35.0199 28.5V8.13636H43.054C44.5985 8.13636 45.9143 8.43134 47.0014 9.02131C48.0885 9.60464 48.9171 10.4167 49.4872 11.4574C50.0639 12.4915 50.3523 13.6847 50.3523 15.0369C50.3523 16.3892 50.0606 17.5824 49.4773 18.6165C48.8939 19.6506 48.0488 20.456 46.9418 21.0327C45.8414 21.6094 44.509 21.8977 42.9446 21.8977H37.8239V18.4474H42.2486C43.0772 18.4474 43.7599 18.3049 44.2969 18.0199C44.8404 17.7282 45.2448 17.3272 45.5099 16.8168C45.7817 16.2997 45.9176 15.7064 45.9176 15.0369C45.9176 14.3608 45.7817 13.7708 45.5099 13.267C45.2448 12.7566 44.8404 12.3622 44.2969 12.0838C43.7533 11.7988 43.0639 11.6562 42.2287 11.6562H39.3253V28.5H35.0199ZM57.0142 28.7884C56.0398 28.7884 55.1714 28.6193 54.4091 28.2812C53.6468 27.9366 53.0436 27.4295 52.5994 26.7599C52.1619 26.0838 51.9432 25.242 51.9432 24.2344C51.9432 23.3859 52.099 22.6733 52.4105 22.0966C52.7221 21.5199 53.1463 21.0559 53.6832 20.7045C54.2202 20.3532 54.83 20.0881 55.5128 19.9091C56.2022 19.7301 56.9247 19.6042 57.6804 19.5312C58.5687 19.4384 59.2846 19.3523 59.8281 19.2727C60.3717 19.1866 60.7661 19.0606 61.0114 18.8949C61.2566 18.7292 61.3793 18.4839 61.3793 18.1591V18.0994C61.3793 17.4697 61.1804 16.9825 60.7827 16.6378C60.3916 16.2931 59.8348 16.1207 59.1122 16.1207C58.3499 16.1207 57.7434 16.2898 57.2926 16.6278C56.8419 16.9593 56.5436 17.3769 56.3977 17.8807L52.4801 17.5625C52.679 16.6345 53.0701 15.8324 53.6534 15.1562C54.2367 14.4735 54.9891 13.9498 55.9105 13.5852C56.8385 13.214 57.9124 13.0284 59.1321 13.0284C59.9806 13.0284 60.7926 13.1278 61.5682 13.3267C62.3504 13.5256 63.0431 13.8338 63.6463 14.2514C64.2562 14.669 64.7367 15.206 65.0881 15.8622C65.4394 16.5118 65.6151 17.2907 65.6151 18.1989V28.5H61.598V26.3821H61.4787C61.2334 26.8594 60.9053 27.2803 60.4943 27.6449C60.0833 28.0028 59.5895 28.2846 59.0128 28.4901C58.4361 28.6889 57.7699 28.7884 57.0142 28.7884ZM58.2273 25.8651C58.8504 25.8651 59.4006 25.7424 59.8778 25.4972C60.3551 25.2453 60.7296 24.9072 61.0014 24.483C61.2732 24.0587 61.4091 23.5781 61.4091 23.0412V21.4205C61.2765 21.5066 61.0942 21.5862 60.8622 21.6591C60.6368 21.7254 60.3816 21.7884 60.0966 21.848C59.8116 21.901 59.5265 21.9508 59.2415 21.9972C58.9564 22.0369 58.6979 22.0734 58.4659 22.1065C57.9688 22.1795 57.5346 22.2955 57.1634 22.4545C56.7921 22.6136 56.5038 22.8291 56.2983 23.1009C56.0928 23.366 55.9901 23.6974 55.9901 24.0952C55.9901 24.6719 56.1989 25.1127 56.6165 25.4176C57.0407 25.7159 57.5777 25.8651 58.2273 25.8651ZM75.782 34.5455C74.4098 34.5455 73.2332 34.3565 72.2521 33.9787C71.2777 33.6075 70.5021 33.1004 69.9254 32.4574C69.3487 31.8144 68.9742 31.0919 68.8018 30.2898L72.7195 29.7628C72.8388 30.0677 73.0277 30.3527 73.2862 30.6179C73.5447 30.883 73.8861 31.0952 74.3104 31.2543C74.7412 31.42 75.2649 31.5028 75.8814 31.5028C76.8028 31.5028 77.5618 31.2775 78.1584 30.8267C78.7616 30.3826 79.0632 29.6368 79.0632 28.5895V25.7955H78.8842C78.6986 26.2197 78.4202 26.6207 78.049 26.9986C77.6778 27.3764 77.2005 27.6847 76.6172 27.9233C76.0339 28.1619 75.3378 28.2812 74.5291 28.2812C73.3823 28.2812 72.3383 28.0161 71.397 27.4858C70.4624 26.9489 69.7166 26.1302 69.1598 25.0298C68.6096 23.9228 68.3345 22.5241 68.3345 20.8338C68.3345 19.1037 68.6162 17.6586 69.1797 16.4986C69.7431 15.3385 70.4922 14.4702 71.4268 13.8935C72.3681 13.3168 73.3989 13.0284 74.5192 13.0284C75.3743 13.0284 76.0902 13.1742 76.6669 13.4659C77.2436 13.7509 77.7076 14.1089 78.0589 14.5398C78.4169 14.964 78.692 15.3816 78.8842 15.7926H79.0433V13.2273H83.2493V28.6491C83.2493 29.9484 82.9311 31.0355 82.2947 31.9105C81.6584 32.7855 80.7768 33.4418 79.6499 33.8793C78.5296 34.3234 77.2403 34.5455 75.782 34.5455ZM75.8714 25.0994C76.5542 25.0994 77.1309 24.9304 77.6016 24.5923C78.0788 24.2476 78.4434 23.7571 78.6953 23.1207C78.9538 22.4777 79.0831 21.7088 79.0831 20.8139C79.0831 19.919 78.9571 19.1435 78.7053 18.4872C78.4534 17.8243 78.0888 17.3106 77.6115 16.946C77.1342 16.5814 76.5542 16.3991 75.8714 16.3991C75.1754 16.3991 74.5888 16.5881 74.1115 16.9659C73.6342 17.3371 73.273 17.8542 73.0277 18.517C72.7824 19.1799 72.6598 19.9455 72.6598 20.8139C72.6598 21.6955 72.7824 22.4579 73.0277 23.1009C73.2796 23.7372 73.6409 24.2311 74.1115 24.5824C74.5888 24.9271 75.1754 25.0994 75.8714 25.0994ZM93.5803 28.7983C92.0092 28.7983 90.657 28.4801 89.5234 27.8438C88.3965 27.2008 87.5282 26.2926 86.9183 25.1193C86.3085 23.9394 86.0036 22.544 86.0036 20.9332C86.0036 19.3622 86.3085 17.9834 86.9183 16.7969C87.5282 15.6103 88.3866 14.6856 89.4936 14.0227C90.6072 13.3598 91.9131 13.0284 93.4112 13.0284C94.4188 13.0284 95.3568 13.1908 96.2251 13.5156C97.1001 13.8338 97.8625 14.3144 98.5121 14.9574C99.1683 15.6004 99.6787 16.4091 100.043 17.3835C100.408 18.3513 100.59 19.4848 100.59 20.7841V21.9474H87.6939V19.3224H96.603C96.603 18.7126 96.4704 18.1723 96.2053 17.7017C95.9401 17.2311 95.5722 16.8632 95.1016 16.598C94.6375 16.3262 94.0973 16.1903 93.4808 16.1903C92.8378 16.1903 92.2678 16.3395 91.7706 16.6378C91.2801 16.9295 90.8956 17.3239 90.6172 17.821C90.3388 18.3116 90.1963 18.8584 90.1896 19.4616V21.9574C90.1896 22.7131 90.3288 23.366 90.6072 23.9162C90.8923 24.4664 91.2933 24.8906 91.8104 25.1889C92.3274 25.4872 92.9406 25.6364 93.6499 25.6364C94.1205 25.6364 94.5514 25.5701 94.9425 25.4375C95.3336 25.3049 95.6683 25.1061 95.9467 24.8409C96.2251 24.5758 96.4373 24.2509 96.5831 23.8665L100.501 24.125C100.302 25.0663 99.8942 25.8883 99.2777 26.5909C98.6679 27.2869 97.879 27.8305 96.9112 28.2216C95.95 28.6061 94.8397 28.7983 93.5803 28.7983ZM116.062 17.5824L112.184 17.821C112.118 17.4896 111.975 17.1913 111.756 16.9261C111.538 16.6544 111.249 16.4389 110.891 16.2798C110.54 16.1141 110.119 16.0312 109.629 16.0312C108.972 16.0312 108.419 16.1705 107.968 16.4489C107.517 16.7206 107.292 17.0852 107.292 17.5426C107.292 17.9072 107.438 18.2154 107.729 18.4673C108.021 18.7192 108.522 18.9214 109.231 19.0739L111.995 19.6307C113.48 19.9356 114.587 20.4261 115.316 21.1023C116.045 21.7784 116.41 22.6667 116.41 23.767C116.41 24.768 116.115 25.6463 115.525 26.402C114.942 27.1577 114.139 27.7476 113.119 28.1719C112.104 28.5895 110.934 28.7983 109.609 28.7983C107.587 28.7983 105.976 28.3774 104.776 27.5355C103.583 26.687 102.884 25.5336 102.678 24.0753L106.844 23.8565C106.97 24.473 107.275 24.9437 107.759 25.2685C108.243 25.5866 108.863 25.7457 109.619 25.7457C110.361 25.7457 110.958 25.6032 111.408 25.3182C111.866 25.0265 112.098 24.652 112.104 24.1946C112.098 23.8101 111.935 23.4953 111.617 23.25C111.299 22.9981 110.808 22.8059 110.146 22.6733L107.501 22.1463C106.009 21.848 104.899 21.331 104.17 20.5952C103.447 19.8594 103.086 18.9214 103.086 17.7812C103.086 16.8002 103.351 15.955 103.881 15.2457C104.418 14.5365 105.171 13.9896 106.138 13.6051C107.113 13.2206 108.253 13.0284 109.559 13.0284C111.488 13.0284 113.006 13.4361 114.113 14.2514C115.227 15.0668 115.876 16.1771 116.062 17.5824Z" fill="white"/>
<path d="M3.56348 25.9H24.5V3.5H3.5057C1.57228 3.50642 0.00635613 5.08725 0 7.03908V27.6646H0.00057783C0.00057783 27.6733 0 27.6821 0 27.6908C0 29.7558 1.60521 31.5 3.5057 31.5H24.5V29.6333H3.5057C2.63895 29.6333 1.84906 28.7076 1.84906 27.6908C1.84906 26.7202 2.63433 25.9 3.56348 25.9ZM5.54717 5.38592H11.0943V15.4671L8.29764 12.9885L5.54717 15.4525V5.38592ZM1.84906 7.05367C1.84617 6.12617 2.58695 5.37192 3.5057 5.36667H3.69811H5.54717H3.69811V17.9667H5.52637L8.30458 15.4782L11.1117 17.9667H12.9434V5.36667H22.6509V24.0333H5.55179H3.70274H3.56348C2.96196 24.0333 2.37141 24.192 1.84963 24.493V7.05367H1.84906Z" fill="#FFCA42"/>
</svg>
