<svg width="15" height="15" viewBox="0 0 15 15" fill="none" xmlns="http://www.w3.org/2000/svg">
<path d="M3.375 14.5V5.15625H0.46875V14.5H3.375ZM1.90625 3.90625C2.84375 3.90625 3.59375 3.125 3.59375 2.1875C3.59375 1.28125 2.84375 0.53125 1.90625 0.53125C1 0.53125 0.25 1.28125 0.25 2.1875C0.25 3.125 1 3.90625 1.90625 3.90625ZM14.2188 14.5H14.25V9.375C14.25 6.875 13.6875 4.9375 10.75 4.9375C9.34375 4.9375 8.40625 5.71875 8 6.4375H7.96875V5.15625H5.1875V14.5H8.09375V9.875C8.09375 8.65625 8.3125 7.5 9.8125 7.5C11.3125 7.5 11.3438 8.875 11.3438 9.96875V14.5H14.2188Z" fill="#1B3764"/>
</svg>
