<svg width="17" height="13" viewBox="0 0 17 13" fill="none" xmlns="http://www.w3.org/2000/svg">
<path d="M14.5938 3.25C14.6146 3.33333 14.625 3.46875 14.625 3.65625C14.625 4.76042 14.4167 5.86458 14 6.96875C13.5833 8.05208 12.9896 9.05208 12.2188 9.96875C11.4688 10.8646 10.4896 11.5938 9.28125 12.1562C8.07292 12.7188 6.73958 13 5.28125 13C3.44792 13 1.77083 12.5104 0.25 11.5312C0.479167 11.5521 0.739583 11.5625 1.03125 11.5625C2.55208 11.5625 3.91667 11.0938 5.125 10.1562C4.39583 10.1562 3.75 9.94792 3.1875 9.53125C2.64583 9.09375 2.27083 8.55208 2.0625 7.90625C2.27083 7.92708 2.46875 7.9375 2.65625 7.9375C2.94792 7.9375 3.23958 7.90625 3.53125 7.84375C2.78125 7.67708 2.15625 7.29167 1.65625 6.6875C1.15625 6.08333 0.90625 5.39583 0.90625 4.625V4.5625C1.36458 4.83333 1.85417 4.97917 2.375 5C1.39583 4.33333 0.90625 3.41667 0.90625 2.25C0.90625 1.66667 1.0625 1.11458 1.375 0.59375C2.1875 1.61458 3.17708 2.42708 4.34375 3.03125C5.53125 3.63542 6.79167 3.96875 8.125 4.03125C8.08333 3.78125 8.0625 3.53125 8.0625 3.28125C8.0625 2.38542 8.375 1.61458 9 0.96875C9.64583 0.322917 10.4167 0 11.3125 0C12.2708 0 13.0729 0.34375 13.7188 1.03125C14.4688 0.885417 15.1667 0.625 15.8125 0.25C15.5625 1.02083 15.0833 1.625 14.375 2.0625C15 1.97917 15.625 1.80208 16.25 1.53125C15.7917 2.19792 15.2396 2.77083 14.5938 3.25Z" fill="#1B3764"/>
</svg>
