<svg width="32" height="45" viewBox="0 0 32 45" fill="none" xmlns="http://www.w3.org/2000/svg">
<path d="M21.5569 1.49317L1 26.8998H13.0002L10.0461 43.1404C10.0405 43.1723 10.0419 43.205 10.0503 43.2362C10.0587 43.2675 10.0738 43.2965 10.0947 43.3213C10.1155 43.346 10.1415 43.3659 10.1708 43.3796C10.2002 43.3932 10.2322 43.4002 10.2645 43.4001V43.4001C10.299 43.4001 10.3329 43.392 10.3637 43.3765C10.3944 43.3611 10.4212 43.3387 10.4417 43.311L31.0005 17.8997H19.0003L21.9685 1.65723C21.9725 1.62487 21.9695 1.59203 21.9598 1.5609C21.9502 1.52977 21.934 1.50105 21.9123 1.47666C21.8907 1.45227 21.8641 1.43277 21.8343 1.41945C21.8046 1.40613 21.7723 1.3993 21.7397 1.39942V1.39942C21.704 1.39956 21.6689 1.40812 21.6371 1.42441C21.6053 1.4407 21.5778 1.46426 21.5569 1.49317V1.49317Z" stroke="white" stroke-width="2" stroke-linecap="round" stroke-linejoin="round"/>
</svg>
