<svg width="15" height="15" viewBox="0 0 15 15" fill="none" xmlns="http://www.w3.org/2000/svg">
<path d="M0.615723 7.29248C0.615723 6.64307 0.699219 6.01839 0.866211 5.41846C1.0332 4.81852 1.27132 4.2557 1.58057 3.72998C1.88981 3.20426 2.25781 2.72803 2.68457 2.30127C3.11133 1.87451 3.58757 1.50651 4.11328 1.19727C4.639 0.888021 5.20182 0.649902 5.80176 0.48291C6.40169 0.315918 7.02637 0.232422 7.67578 0.232422C8.3252 0.232422 8.94987 0.315918 9.5498 0.48291C10.1497 0.649902 10.7126 0.888021 11.2383 1.19727C11.764 1.50651 12.2402 1.87451 12.667 2.30127C13.0938 2.72803 13.4618 3.20426 13.771 3.72998C14.0802 4.2557 14.3184 4.81852 14.4854 5.41846C14.6523 6.01839 14.7358 6.64307 14.7358 7.29248C14.7358 7.94189 14.6523 8.56657 14.4854 9.1665C14.3184 9.76644 14.0802 10.3293 13.771 10.855C13.4618 11.3807 13.0938 11.8569 12.667 12.2837C12.2402 12.7104 11.764 13.0785 11.2383 13.3877C10.7126 13.6969 10.1497 13.9351 9.5498 14.1021C8.94987 14.269 8.3252 14.3525 7.67578 14.3525C7.02637 14.3525 6.40169 14.269 5.80176 14.1021C5.20182 13.9351 4.639 13.6969 4.11328 13.3877C3.58757 13.0785 3.11133 12.7104 2.68457 12.2837C2.25781 11.8569 1.88981 11.3807 1.58057 10.855C1.27132 10.3293 1.0332 9.76644 0.866211 9.1665C0.699219 8.56657 0.615723 7.94189 0.615723 7.29248ZM1.87744 7.29248C1.87744 7.82438 1.94548 8.33773 2.08154 8.83252C2.2238 9.32731 2.41862 9.79118 2.66602 10.2241C2.9196 10.6509 3.22266 11.0405 3.5752 11.3931C3.92773 11.7456 4.31738 12.0487 4.74414 12.3022C5.17708 12.5496 5.64095 12.7445 6.13574 12.8867C6.63053 13.0228 7.14388 13.0908 7.67578 13.0908C8.20768 13.0908 8.72103 13.0228 9.21582 12.8867C9.71061 12.7445 10.1714 12.5496 10.5981 12.3022C11.0311 12.0487 11.4238 11.7456 11.7764 11.3931C12.1289 11.0405 12.4289 10.6509 12.6763 10.2241C12.9299 9.79118 13.1247 9.32731 13.2607 8.83252C13.403 8.33773 13.4741 7.82438 13.4741 7.29248C13.4741 6.76058 13.403 6.24723 13.2607 5.75244C13.1247 5.25765 12.9299 4.79688 12.6763 4.37012C12.4289 3.93717 12.1289 3.54443 11.7764 3.19189C11.4238 2.83936 11.0311 2.53939 10.5981 2.29199C10.1714 2.03841 9.71061 1.84359 9.21582 1.70752C8.72103 1.56527 8.20768 1.49414 7.67578 1.49414C7.14388 1.49414 6.63053 1.56527 6.13574 1.70752C5.64095 1.84359 5.17708 2.03841 4.74414 2.29199C4.31738 2.53939 3.92773 2.83936 3.5752 3.19189C3.22266 3.54443 2.9196 3.93717 2.66602 4.37012C2.41862 4.79688 2.2238 5.25765 2.08154 5.75244C1.94548 6.24723 1.87744 6.76058 1.87744 7.29248ZM3.19482 7.40381C3.19482 6.95231 3.2474 6.52865 3.35254 6.13281C3.45768 5.73079 3.60303 5.36279 3.78857 5.02881C3.98031 4.68864 4.20915 4.38558 4.4751 4.11963C4.74105 3.84749 5.03483 3.61865 5.35645 3.43311C5.68424 3.24137 6.03369 3.09603 6.40479 2.99707C6.77588 2.89811 7.16243 2.84863 7.56445 2.84863C7.91081 2.84863 8.2417 2.88265 8.55713 2.95068C8.87256 3.01253 9.20036 3.08675 9.54053 3.17334C9.59619 3.19189 9.65495 3.21354 9.7168 3.23828C9.77865 3.26302 9.83431 3.28776 9.88379 3.3125C9.93945 3.33105 9.98893 3.34961 10.0322 3.36816C10.0755 3.38053 10.1095 3.38672 10.1343 3.38672C10.1405 3.38672 10.1652 3.38053 10.2085 3.36816C10.2518 3.34961 10.2827 3.34033 10.3013 3.34033H10.561C10.6043 3.34033 10.626 3.37435 10.626 3.44238V5.40918C10.626 5.43392 10.6167 5.45247 10.5981 5.46484C10.5796 5.47103 10.5425 5.47412 10.4868 5.47412C10.4806 5.47412 10.4528 5.47412 10.4033 5.47412C10.36 5.46794 10.3322 5.45557 10.3198 5.43701C10.3136 5.42464 10.2982 5.3999 10.2734 5.36279C10.2549 5.32568 10.2332 5.28857 10.2085 5.25146C10.1838 5.21436 10.1621 5.18034 10.1436 5.14941C10.125 5.1123 10.1126 5.08757 10.1064 5.0752C9.96419 4.77214 9.80957 4.51855 9.64258 4.31445C9.47559 4.10417 9.29004 3.93408 9.08594 3.8042C8.88802 3.67432 8.66846 3.58154 8.42725 3.52588C8.19222 3.46403 7.93555 3.43311 7.65723 3.43311C7.30469 3.43311 6.99235 3.47949 6.72021 3.57227C6.44808 3.65885 6.20996 3.78255 6.00586 3.94336C5.80176 4.10417 5.62858 4.29899 5.48633 4.52783C5.35026 4.75049 5.23893 4.99479 5.15234 5.26074C5.06576 5.52669 5.00081 5.81429 4.95752 6.12354C4.92041 6.4266 4.90186 6.73893 4.90186 7.06055C4.90186 7.40072 4.9235 7.73779 4.9668 8.07178C5.01628 8.40576 5.09049 8.72738 5.18945 9.03662C5.28841 9.33968 5.4152 9.62109 5.56982 9.88086C5.73063 10.1406 5.92236 10.3664 6.14502 10.5581C6.36768 10.7437 6.62744 10.8921 6.92432 11.0034C7.22119 11.1147 7.55518 11.1704 7.92627 11.1704C8.2417 11.1704 8.53548 11.1178 8.80762 11.0127C9.08594 10.9076 9.33643 10.7684 9.55908 10.5952C9.78792 10.422 9.98893 10.221 10.1621 9.99219C10.3415 9.76335 10.493 9.52523 10.6167 9.27783C10.6229 9.25928 10.6291 9.25 10.6353 9.25C10.6476 9.24382 10.6631 9.24072 10.6816 9.24072H10.9692C10.9816 9.24072 10.994 9.24691 11.0063 9.25928C11.0187 9.26546 11.0249 9.28402 11.0249 9.31494C11.0249 9.32731 11.0156 9.36133 10.9971 9.41699C10.9847 9.46647 10.9692 9.50977 10.9507 9.54688L10.1807 11.3745C10.1745 11.3869 10.1621 11.3993 10.1436 11.4116C10.1312 11.4178 10.1188 11.4209 10.1064 11.4209C10.0199 11.4209 9.95801 11.4147 9.9209 11.4023C9.88379 11.3838 9.84668 11.3745 9.80957 11.3745C9.69824 11.3745 9.5498 11.3962 9.36426 11.4395C9.1849 11.4766 8.98698 11.5199 8.77051 11.5693C8.56022 11.6188 8.34684 11.6652 8.13037 11.7085C7.9139 11.7518 7.71908 11.7734 7.5459 11.7734C7.15625 11.7734 6.77588 11.7271 6.40479 11.6343C6.03988 11.5415 5.69661 11.4085 5.375 11.2354C5.05339 11.056 4.7596 10.8395 4.49365 10.5859C4.2277 10.3262 3.99577 10.0355 3.79785 9.71387C3.60612 9.39225 3.45768 9.03971 3.35254 8.65625C3.2474 8.2666 3.19482 7.84912 3.19482 7.40381Z" fill="#B4C7E7"/>
</svg>
